<?xml version="1.0" encoding="UTF-8"?>
<svg version="1.1" xmlns="http://www.w3.org/2000/svg" width="136" height="194">
<path d="M0 0 C14.0297234 10.10684928 18.3434409 28.05580885 21.3515625 44.1484375 C26.75598994 77.52687366 29.48675497 125.18264155 9.01171875 154.44921875 C0.76838027 165.24913934 -8.56920783 172.42965471 -21.98828125 175.44921875 C-25.48117227 175.83432648 -28.91446332 175.88051891 -32.42578125 175.82421875 C-33.34520508 175.81406738 -34.26462891 175.80391602 -35.21191406 175.79345703 C-45.64453279 175.5550922 -55.11762379 173.81554282 -62.98828125 166.44921875 C-69.21170808 158.03776606 -70.99718346 150.85925521 -69.98828125 140.44921875 C-68.77093628 136.18851135 -67.02919692 132.37488503 -64.98828125 128.44921875 C-64.53066406 127.56105469 -64.07304688 126.67289063 -63.6015625 125.7578125 C-60.2226476 119.69428029 -56.06030912 115.14084453 -50.98828125 110.44921875 C-50.14265625 109.60359375 -49.29703125 108.75796875 -48.42578125 107.88671875 C-47.62140625 107.08234375 -46.81703125 106.27796875 -45.98828125 105.44921875 C-45.49070313 104.91683594 -44.993125 104.38445312 -44.48046875 103.8359375 C-33.5262901 92.34678733 -18.65979406 85.2108557 -4.98828125 77.44921875 C-4.63096391 69.79103892 -5.97368433 62.53700473 -7.30078125 55.01171875 C-7.51412109 53.74005859 -7.72746094 52.46839844 -7.94726562 51.15820312 C-9.13205607 44.33593216 -10.5785173 37.94356794 -12.98828125 31.44921875 C-18.38900398 39.86163862 -23.5534964 48.37608073 -28.49902344 57.06518555 C-51.0064476 96.59577429 -51.0064476 96.59577429 -66.5546875 101.859375 C-74.374989 103.75482528 -80.98805609 102.37815307 -87.98828125 98.44921875 C-95.53150978 92.7630064 -99.08013029 85.32575378 -100.609375 76.1640625 C-100.73441406 75.26816406 -100.85945313 74.37226562 -100.98828125 73.44921875 C-101.12363281 72.56363281 -101.25898437 71.67804688 -101.3984375 70.765625 C-104.09547504 47.42230009 -98.32398589 22.77854779 -91.98828125 0.44921875 C-86.21885109 -0.78762641 -82.34255296 -0.18446328 -76.80078125 1.69921875 C-76.10275391 1.91707031 -75.40472656 2.13492187 -74.68554688 2.359375 C-70.9620361 3.5710217 -67.82420142 4.7196554 -64.98828125 7.44921875 C-64.74829102 9.59350586 -64.74829102 9.59350586 -65.1171875 12.0390625 C-65.30885498 13.37300049 -65.30885498 13.37300049 -65.50439453 14.73388672 C-66.23709624 18.84544496 -67.04078791 22.93027996 -67.92578125 27.01171875 C-70.93336266 41.56014602 -72.34809987 55.5967059 -71.98828125 70.44921875 C-67.50561259 64.79924981 -63.84752329 58.94165013 -60.36328125 52.63671875 C-32.78075115 3.6588802 -32.78075115 3.6588802 -16.09375 -2.0078125 C-10.20387695 -3.52672225 -5.32513196 -2.98165542 0 0 Z M-14.67578125 117.01171875 C-15.30645508 117.47280029 -15.93712891 117.93388184 -16.58691406 118.40893555 C-18.39660984 119.74385396 -20.19466554 121.09280016 -21.98828125 122.44921875 C-23.15037109 123.32320312 -23.15037109 123.32320312 -24.3359375 124.21484375 C-30.73568714 129.41874695 -38.35615833 137.55284999 -40.98828125 145.44921875 C-36.60534676 147.91708727 -32.92616709 148.08478821 -27.98828125 147.44921875 C-21.3339697 145.50940099 -16.77449449 141.12390999 -12.98828125 135.44921875 C-9.22891085 128.14442586 -6.91562054 120.40928672 -4.98828125 112.44921875 C-9.14892312 112.44921875 -11.45059815 114.63703531 -14.67578125 117.01171875 Z " fill="#EF6421" transform="translate(107.98828125,14.55078125)"/>
<path d="M0 0 C2.71320552 1.13868249 4.55972086 2.11908317 6.69921875 4.1328125 C6.93920898 6.27709961 6.93920898 6.27709961 6.5703125 8.72265625 C6.37864502 10.05659424 6.37864502 10.05659424 6.18310547 11.41748047 C5.45040376 15.52903871 4.64671209 19.61387371 3.76171875 23.6953125 C0.75413734 38.24373977 -0.66059987 52.28029965 -0.30078125 67.1328125 C0.12074219 66.5553125 0.54226562 65.9778125 0.9765625 65.3828125 C1.52441406 64.6403125 2.07226562 63.8978125 2.63671875 63.1328125 C3.18199219 62.3903125 3.72726563 61.6478125 4.2890625 60.8828125 C4.75441406 60.3053125 5.21976563 59.7278125 5.69921875 59.1328125 C6.02921875 59.1328125 6.35921875 59.1328125 6.69921875 59.1328125 C7.01171875 61.8203125 7.01171875 61.8203125 6.69921875 65.1328125 C4.45329167 67.94022135 2.80454662 69.74445406 -0.61328125 70.9453125 C-1.44859375 71.038125 -1.44859375 71.038125 -2.30078125 71.1328125 C-4.90968956 67.21945004 -4.55748569 63.91388192 -4.48828125 59.3828125 C-4.48763672 58.59648438 -4.48699219 57.81015625 -4.48632812 57 C-4.45111239 52.28891749 -4.06720622 47.79158142 -3.30078125 43.1328125 C-3.14738281 42.06160156 -2.99398437 40.99039063 -2.8359375 39.88671875 C-1.40709181 30.23905822 -1.40709181 30.23905822 -0.17578125 25.8203125 C0.53945749 22.80609209 0.77472788 20.77278426 0.69921875 17.7578125 C0.69921875 14.1328125 0.69921875 14.1328125 2.69921875 12.1328125 C2.86602984 9.04933424 2.86602984 9.04933424 2.69921875 6.1328125 C2.05984375 6.0090625 1.42046875 5.8853125 0.76171875 5.7578125 C-0.98394235 5.40155513 -2.72727427 5.0317807 -4.4609375 4.62109375 C-10.34282159 3.02752555 -10.34282159 3.02752555 -16.30078125 3.1328125 C-19.01737409 5.70256249 -20.21664311 7.18625839 -20.55078125 10.9453125 C-20.42703125 12.028125 -20.42703125 12.028125 -20.30078125 13.1328125 C-20.96078125 13.4628125 -21.62078125 13.7928125 -22.30078125 14.1328125 C-22.28917969 15.10863281 -22.27757812 16.08445312 -22.265625 17.08984375 C-22.25660156 18.36214844 -22.24757813 19.63445313 -22.23828125 20.9453125 C-22.22667969 22.20988281 -22.21507812 23.47445312 -22.203125 24.77734375 C-22.30078125 28.1328125 -22.30078125 28.1328125 -23.30078125 31.1328125 C-22.64078125 31.4628125 -21.98078125 31.7928125 -21.30078125 32.1328125 C-21.63078125 33.1846875 -21.96078125 34.2365625 -22.30078125 35.3203125 C-23.15725602 38.58562257 -23.38771156 40.82946079 -23.30078125 44.1328125 C-23.71968286 46.52653596 -24.23943886 48.87450355 -24.80078125 51.23828125 C-25.47315471 55.13069321 -25.66176594 59.00420168 -25.86328125 62.9453125 C-25.90646484 63.73357422 -25.94964844 64.52183594 -25.99414062 65.33398438 C-26.09956446 67.26675465 -26.20061219 69.19976276 -26.30078125 71.1328125 C-25.64078125 71.4628125 -24.98078125 71.7928125 -24.30078125 72.1328125 C-24.03425965 73.79116915 -23.83831296 75.46105773 -23.67578125 77.1328125 C-22.56047641 83.87733311 -19.44543459 87.76879211 -14.30078125 92.1328125 C-7.83473455 95.96454388 -0.15790273 96.94077095 7.19921875 95.4453125 C10.74585638 94.48956692 10.74585638 94.48956692 12.19921875 92.0078125 C12.36421875 91.3890625 12.52921875 90.7703125 12.69921875 90.1328125 C13.68921875 90.1328125 14.67921875 90.1328125 15.69921875 90.1328125 C16.19421875 88.6478125 16.19421875 88.6478125 16.69921875 87.1328125 C18.01921875 87.4628125 19.33921875 87.7928125 20.69921875 88.1328125 C14.27215516 94.5239707 7.49536532 99.12455757 -1.80078125 99.6328125 C-9.77144303 99.19625682 -16.51110559 95.9441354 -21.8359375 90.04296875 C-26.49435171 83.96839662 -28.25374847 77.63474842 -29.30078125 70.1328125 C-29.43613281 69.24722656 -29.57148438 68.36164063 -29.7109375 67.44921875 C-32.29515718 45.0823519 -27.97170724 18.21740644 -20.30078125 -2.8671875 C-14.44198309 -5.79658658 -5.76960108 -1.9156584 0 0 Z " fill="#DF642A" transform="translate(36.30078125,17.8671875)"/>
<path d="M0 0 C1.65 0 3.3 0 5 0 C7.73428719 5.84698019 9.33298282 10.50863598 9.015625 16.98046875 C8.99286823 19.92178115 9.95516016 22.27180708 11 25 C12.7979794 31.13746353 13.42382343 36.80295119 13.5 43.1875 C13.54125 44.06341797 13.5825 44.93933594 13.625 45.84179688 C13.70068026 52.08068852 13.70068026 52.08068852 11.77392578 54.60864258 C10.2265625 55.90625 10.2265625 55.90625 7 58 C6.27554688 58.59425781 5.55109375 59.18851563 4.8046875 59.80078125 C4.16789062 60.29964844 3.53109375 60.79851562 2.875 61.3125 C2.23304687 61.82425781 1.59109375 62.33601563 0.9296875 62.86328125 C-1 64 -1 64 -5 64 C-5 64.66 -5 65.32 -5 66 C-5.99 66.33 -6.98 66.66 -8 67 C-8.33 67.66 -8.66 68.32 -9 69 C-9.5775 69.12375 -10.155 69.2475 -10.75 69.375 C-14.9011642 70.52810117 -17.61369364 73.60427154 -20.5625 76.625 C-23 79 -23 79 -24.86328125 79.87890625 C-27.58945091 81.30927315 -29.44510996 83.14354586 -31.625 85.3125 C-32.40101562 86.07175781 -33.17703125 86.83101563 -33.9765625 87.61328125 C-36.04123474 90.04863788 -36.95981635 92.01007677 -38 95 C-39.8125 98.3125 -39.8125 98.3125 -42 101 C-44.75 101.375 -44.75 101.375 -47 101 C-47.33 102.65 -47.66 104.3 -48 106 C-48.66 106 -49.32 106 -50 106 C-51.87640272 114.29649137 -53.37874108 122.27958809 -49 130 C-48.54625 130.45375 -48.0925 130.9075 -47.625 131.375 C-46 133 -46 133 -44 136.0625 C-42.15461663 139.16818305 -42.15461663 139.16818305 -39 141 C-39 141.66 -39 142.32 -39 143 C-38.28972656 143.12117187 -37.57945313 143.24234375 -36.84765625 143.3671875 C-35.46900391 143.61855469 -35.46900391 143.61855469 -34.0625 143.875 C-32.68771484 144.11863281 -32.68771484 144.11863281 -31.28515625 144.3671875 C-30.53105469 144.57601562 -29.77695312 144.78484375 -29 145 C-28.505 145.99 -28.505 145.99 -28 147 C-35.63295169 146.75377575 -41.0352312 144.87105907 -47 140 C-53.17365191 132.75709703 -55.53907883 125.93742275 -55.37890625 116.4765625 C-54.75488145 110.75097417 -52.63628394 106.07084695 -50 101 C-49.54238281 100.11183594 -49.08476563 99.22367187 -48.61328125 98.30859375 C-45.23436635 92.24506154 -41.07202787 87.69162578 -36 83 C-35.154375 82.154375 -34.30875 81.30875 -33.4375 80.4375 C-32.633125 79.633125 -31.82875 78.82875 -31 78 C-30.50242187 77.46761719 -30.00484375 76.93523437 -29.4921875 76.38671875 C-18.53800885 64.89756858 -3.67151281 57.76163695 10 50 C10.35731734 42.34182017 9.01459692 35.08778598 7.6875 27.5625 C7.36749023 25.65500977 7.36749023 25.65500977 7.04101562 23.70898438 C5.85622518 16.88671341 4.40976395 10.49434919 2 4 C-0.97 8.62 -3.94 13.24 -7 18 C-7.495 16.02 -7.495 16.02 -8 14 C-7.34 14 -6.68 14 -6 14 C-6.495 12.515 -6.495 12.515 -7 11 C-6.01 10.67 -5.02 10.34 -4 10 C-3.67 8.02 -3.34 6.04 -3 4 C-2.34 4 -1.68 4 -1 4 C-0.67 2.68 -0.34 1.36 0 0 Z " fill="#E26727" transform="translate(93,42)"/>
<path d="M0 0 C2.71320552 1.13868249 4.55972086 2.11908317 6.69921875 4.1328125 C6.93920898 6.27709961 6.93920898 6.27709961 6.5703125 8.72265625 C6.44253418 9.61194824 6.31475586 10.50124023 6.18310547 11.41748047 C5.45040376 15.52903871 4.64671209 19.61387371 3.76171875 23.6953125 C0.75413734 38.24373977 -0.66059987 52.28029965 -0.30078125 67.1328125 C0.12074219 66.5553125 0.54226562 65.9778125 0.9765625 65.3828125 C1.52441406 64.6403125 2.07226562 63.8978125 2.63671875 63.1328125 C3.18199219 62.3903125 3.72726563 61.6478125 4.2890625 60.8828125 C4.75441406 60.3053125 5.21976563 59.7278125 5.69921875 59.1328125 C6.02921875 59.1328125 6.35921875 59.1328125 6.69921875 59.1328125 C7.01171875 61.8203125 7.01171875 61.8203125 6.69921875 65.1328125 C4.45329167 67.94022135 2.80454662 69.74445406 -0.61328125 70.9453125 C-1.44859375 71.038125 -1.44859375 71.038125 -2.30078125 71.1328125 C-4.90968956 67.21945004 -4.55748569 63.91388192 -4.48828125 59.3828125 C-4.48763672 58.59648438 -4.48699219 57.81015625 -4.48632812 57 C-4.45111239 52.28891749 -4.06720622 47.79158142 -3.30078125 43.1328125 C-3.14738281 42.06160156 -2.99398437 40.99039063 -2.8359375 39.88671875 C-1.70155039 32.22726202 -0.33034213 25.00593081 2.26171875 17.6953125 C3.82047918 13.17648176 4.32166846 8.8899462 4.69921875 4.1328125 C3.39984375 3.9471875 3.39984375 3.9471875 2.07421875 3.7578125 C-1.21308325 3.14905287 -4.14647732 2.22716284 -7.30078125 1.1328125 C-11.81421052 -0.31793262 -15.55412094 -1.09873191 -20.30078125 -0.8671875 C-20.30078125 -1.5271875 -20.30078125 -2.1871875 -20.30078125 -2.8671875 C-14.44198309 -5.79658658 -5.76960108 -1.9156584 0 0 Z " fill="#B4623C" transform="translate(36.30078125,17.8671875)"/>
<path d="M0 0 C1.65 0 3.3 0 5 0 C4.12149236 14.23788239 -0.23151193 25.59650731 -9.9296875 36.1796875 C-12.87625148 38.77043998 -15.1560236 39.43942011 -19 40 C-19 40.33 -19 40.66 -19 41 C-20.89510699 41.08160748 -22.79124504 41.13946459 -24.6875 41.1875 C-26.27111328 41.23970703 -26.27111328 41.23970703 -27.88671875 41.29296875 C-31.35422768 40.96666615 -33.18432448 39.99030125 -36 38 C-35.34 34.37 -34.68 30.74 -34 27 C-32.68 27 -31.36 27 -30 27 C-30 26.01 -30 25.02 -30 24 C-29.34 24 -28.68 24 -28 24 C-28 23.34 -28 22.68 -28 22 C-26.68 21.67 -25.36 21.34 -24 21 C-24.6077717 24.39592437 -25.85504695 26.38646483 -28 29.0625 C-29.9430921 31.49603602 -31.0012861 33.00385831 -32 36 C-26.59686405 37.80104532 -21.15797309 37.82810249 -15.875 35.5625 C-5.7167347 29.69731111 -2.42229581 18.50805593 1 8 C1.35542456 6.67238474 1.70331886 5.34196468 2 4 C0.68 4 -0.64 4 -2 4 C-1.34 2.68 -0.68 1.36 0 0 Z " fill="#C76131" transform="translate(100,124)"/>
<path d="M0 0 C0 4.0234866 -1.76191846 5.70870362 -4 9 C-4.33 9.86625 -4.66 10.7325 -5 11.625 C-6.18548091 14.44051717 -7.85462926 15.85462926 -10 18 C-11.25436187 20.63222962 -11.25436187 20.63222962 -12 23 C-12.66 23 -13.32 23 -14 23 C-15.87640272 31.29649137 -17.37874108 39.27958809 -13 47 C-12.54625 47.45375 -12.0925 47.9075 -11.625 48.375 C-10 50 -10 50 -8 53.0625 C-6.15461663 56.16818305 -6.15461663 56.16818305 -3 58 C-3 58.66 -3 59.32 -3 60 C-1.93458984 60.18175781 -1.93458984 60.18175781 -0.84765625 60.3671875 C0.07144531 60.53476563 0.99054687 60.70234375 1.9375 60.875 C2.85402344 61.03742188 3.77054688 61.19984375 4.71484375 61.3671875 C5.46894531 61.57601562 6.22304688 61.78484375 7 62 C7.33 62.66 7.66 63.32 8 64 C0.36704831 63.75377575 -5.0352312 61.87105907 -11 57 C-17.17365191 49.75709703 -19.53907883 42.93742275 -19.37890625 33.4765625 C-18.75488145 27.75097417 -16.63628394 23.07084695 -14 18 C-13.54238281 17.11183594 -13.08476563 16.22367188 -12.61328125 15.30859375 C-9.24977451 9.27271179 -5.10021858 4.63420876 0 0 Z " fill="#C56134" transform="translate(57,125)"/>
<path d="M0 0 C1.65 0 3.3 0 5 0 C7.73428719 5.84698019 9.33298282 10.50863598 9.015625 16.98046875 C8.99286823 19.92178115 9.95516016 22.27180708 11 25 C12.89987617 31.30730948 13.24903088 36.93590411 13.125 43.5 C13.11597656 44.4178125 13.10695313 45.335625 13.09765625 46.28125 C13.07432606 48.52094838 13.03846452 50.76051041 13 53 C10.03 53.66 7.06 54.32 4 55 C4 55.66 4 56.32 4 57 C3.34 57 2.68 57 2 57 C3.4638611 52.60841671 5.97831338 52.12052567 10 50 C10.35731734 42.34182017 9.01459692 35.08778598 7.6875 27.5625 C7.47416016 26.29083984 7.26082031 25.01917969 7.04101562 23.70898438 C5.85622518 16.88671341 4.40976395 10.49434919 2 4 C-0.97 8.62 -3.94 13.24 -7 18 C-7.33 16.68 -7.66 15.36 -8 14 C-7.34 14 -6.68 14 -6 14 C-6.33 13.01 -6.66 12.02 -7 11 C-6.01 10.67 -5.02 10.34 -4 10 C-3.67 8.02 -3.34 6.04 -3 4 C-2.34 4 -1.68 4 -1 4 C-0.67 2.68 -0.34 1.36 0 0 Z " fill="#C25C2E" transform="translate(93,42)"/>
<path d="M0 0 C14.81019841 11.25575079 18.35136586 29.51473283 21 47 C22.80589679 60.98013206 23.29574629 74.91919066 23 89 C22.67 89 22.34 89 22 89 C21.93941406 87.78441406 21.87882812 86.56882812 21.81640625 85.31640625 C21.73201668 83.73175772 21.6473679 82.14712298 21.5625 80.5625 C21.52318359 79.76005859 21.48386719 78.95761719 21.44335938 78.13085938 C21.5945704 74.24760439 21.5945704 74.24760439 20 71 C19.85469013 69.30571693 19.77283477 67.60589258 19.71875 65.90625 C19.68136719 64.87628906 19.64398438 63.84632812 19.60546875 62.78515625 C19.53515625 60.59505208 19.46484375 58.40494792 19.39453125 56.21484375 C19.35714844 55.18488281 19.31976563 54.15492187 19.28125 53.09375 C19.25095703 52.14177734 19.22066406 51.18980469 19.18945312 50.20898438 C19.24114598 48.02644685 19.24114598 48.02644685 18 47 C17.92794489 45.31391034 17.91613932 43.62499341 17.9375 41.9375 C17.94652344 41.01839844 17.95554687 40.09929688 17.96484375 39.15234375 C17.97644531 38.44207031 17.98804687 37.73179688 18 37 C17.34 37 16.68 37 16 37 C15.80664062 36.22914062 15.61328125 35.45828125 15.4140625 34.6640625 C15.02347656 33.15972656 15.02347656 33.15972656 14.625 31.625 C14.36976562 30.62726562 14.11453125 29.62953125 13.8515625 28.6015625 C13.17595681 25.87458985 13.17595681 25.87458985 11 24 C10.835 23.154375 10.67 22.30875 10.5 21.4375 C10.335 20.633125 10.17 19.82875 10 19 C9.34 18.67 8.68 18.34 8 18 C7.15258932 15.44445783 6.52828074 12.86234081 5.87890625 10.25 C5.58886719 9.5075 5.29882812 8.765 5 8 C4.01 7.67 3.02 7.34 2 7 C0.35179805 4.39757586 0 3.13751221 0 0 Z " fill="#CE5B2A" transform="translate(109,16)"/>
<path d="M0 0 C0 0.66 0 1.32 0 2 C-1.134375 1.814375 -2.26875 1.62875 -3.4375 1.4375 C-10.28046279 0.5896993 -16.56513117 1.52505045 -23 4 C-23 4.66 -23 5.32 -23 6 C-23.66 6 -24.32 6 -25 6 C-25 6.66 -25 7.32 -25 8 C-25.928125 8.12375 -25.928125 8.12375 -26.875 8.25 C-29.15303678 8.77341441 -29.15303678 8.77341441 -29.875 10.8125 C-31.50121471 13.97458416 -34.01843959 15.18513714 -37 17 C-32.55375146 7.6938984 -26.34440839 1.84850989 -16.9375 -2.375 C-10.40666729 -3.76453887 -5.86656363 -3.51993818 0 0 Z " fill="#C5602D" transform="translate(108,15)"/>
<path d="M0 0 C0.66 0 1.32 0 2 0 C3.56958193 1.67721041 4.9480525 3.46794114 6.3671875 5.2734375 C10.79157972 9.95186181 16.39721851 9.61520523 22.5 9.96484375 C26.87421691 10.0087812 29.94564837 9.63733431 34 8 C35.5748108 6.02965198 35.5748108 6.02965198 36 4 C36.99 4 37.98 4 39 4 C39.33 3.01 39.66 2.02 40 1 C41.32 1.33 42.64 1.66 44 2 C37.57293641 8.3911582 30.79614657 12.99174507 21.5 13.5 C13.18096512 13.04436381 6.82753498 9.54610835 1.1796875 3.5859375 C0 2 0 2 0 0 Z " fill="#C1643C" transform="translate(13,104)"/>
<path d="M0 0 C0.33 0.66 0.66 1.32 1 2 C1.66 2 2.32 2 3 2 C3.06058594 2.71027344 3.12117188 3.42054687 3.18359375 4.15234375 C3.26738281 5.07144531 3.35117188 5.99054687 3.4375 6.9375 C3.51871094 7.85402344 3.59992188 8.77054688 3.68359375 9.71484375 C3.76044976 11.96159732 3.76044976 11.96159732 5 13 C5.14530987 14.69428307 5.22716523 16.39410742 5.28125 18.09375 C5.33732422 19.63869141 5.33732422 19.63869141 5.39453125 21.21484375 C5.46484375 23.40494792 5.53515625 25.59505208 5.60546875 27.78515625 C5.66154297 29.33009766 5.66154297 29.33009766 5.71875 30.90625 C5.74904297 31.85822266 5.77933594 32.81019531 5.81054688 33.79101562 C5.75885402 35.97355315 5.75885402 35.97355315 7 37 C7.15349136 39.47357237 7.23159885 41.90004519 7.25 44.375 C7.270625 45.06078125 7.29125 45.7465625 7.3125 46.453125 C7.35256056 51.60090688 7.35256056 51.60090688 5.47949219 53.72119141 C4.99125977 54.14319824 4.50302734 54.56520508 4 55 C3.98541748 54.02877197 3.97083496 53.05754395 3.95581055 52.05688477 C3.89670698 48.36433681 3.81951244 44.67232982 3.73754883 40.98022461 C3.70481488 39.3989354 3.67663329 37.81754372 3.65356445 36.23608398 C3.50107212 26.04505358 2.62785565 16.36130126 0.63208008 6.35913086 C0 3 0 3 0 0 Z " fill="#DF6128" transform="translate(124,51)"/>
<path d="M0 0 C2.475 0.495 2.475 0.495 5 1 C1.97962345 4.40518414 -0.78434695 6.01704748 -5 7.6875 C-6.03125 8.10386719 -7.0625 8.52023438 -8.125 8.94921875 C-12.23405056 10.45103207 -15.59947172 11.12439347 -19.984375 11.09765625 C-20.91894531 11.09443359 -21.85351562 11.09121094 -22.81640625 11.08789062 C-23.78449219 11.07951172 -24.75257812 11.07113281 -25.75 11.0625 C-27.22533203 11.05573242 -27.22533203 11.05573242 -28.73046875 11.04882812 C-31.15370791 11.03706483 -33.57682273 11.02062684 -36 11 C-36 10.67 -36 10.34 -36 10 C-34.77023438 9.96261719 -33.54046875 9.92523438 -32.2734375 9.88671875 C-30.64059599 9.82102972 -29.00778482 9.75458341 -27.375 9.6875 C-26.56675781 9.66494141 -25.75851563 9.64238281 -24.92578125 9.61914062 C-19.83898719 9.39168235 -16.5356195 8.48062474 -12 6 C-10.68 6 -9.36 6 -8 6 C-7.67 4.35 -7.34 2.7 -7 1 C-4.69 1.33 -2.38 1.66 0 2 C0 1.34 0 0.68 0 0 Z " fill="#DC6127" transform="translate(101,179)"/>
<path d="M0 0 C-0.6077717 3.39592437 -1.85504695 5.38646483 -4 8.0625 C-5.9430921 10.49603602 -7.0012861 12.00385831 -8 15 C-7.67 15.66 -7.34 16.32 -7 17 C-4.44508177 17.39213038 -4.44508177 17.39213038 -1.5 17.5 C1.53125 17.65625 1.53125 17.65625 4 18 C4.33 18.66 4.66 19.32 5 20 C3.10489301 20.08160748 1.20875496 20.13946459 -0.6875 20.1875 C-2.27111328 20.23970703 -2.27111328 20.23970703 -3.88671875 20.29296875 C-7.35422768 19.96666615 -9.18432448 18.99030125 -12 17 C-11.34 13.37 -10.68 9.74 -10 6 C-8.68 6 -7.36 6 -6 6 C-6 5.01 -6 4.02 -6 3 C-5.34 3 -4.68 3 -4 3 C-4 2.34 -4 1.68 -4 1 C-2 0 -2 0 0 0 Z " fill="#CE632E" transform="translate(76,145)"/>
<path d="M0 0 C2.98719795 2.98719795 3.21352954 6.66848321 4 10.6875 C4.17370117 11.57236084 4.34740234 12.45722168 4.52636719 13.36889648 C7.64527246 30.11765186 8.35705874 47.00003679 8 64 C7.67 64 7.34 64 7 64 C6.93941406 62.78441406 6.87882813 61.56882813 6.81640625 60.31640625 C6.73201668 58.73175772 6.6473679 57.14712298 6.5625 55.5625 C6.52318359 54.76005859 6.48386719 53.95761719 6.44335938 53.13085938 C6.5945704 49.24760439 6.5945704 49.24760439 5 46 C4.85469013 44.30571693 4.77283477 42.60589258 4.71875 40.90625 C4.66267578 39.36130859 4.66267578 39.36130859 4.60546875 37.78515625 C4.53515625 35.59505208 4.46484375 33.40494792 4.39453125 31.21484375 C4.33845703 29.66990234 4.33845703 29.66990234 4.28125 28.09375 C4.25095703 27.14177734 4.22066406 26.18980469 4.18945312 25.20898438 C4.24114598 23.02644685 4.24114598 23.02644685 3 22 C2.92794489 20.31391034 2.91613932 18.62499341 2.9375 16.9375 C2.94652344 16.01839844 2.95554687 15.09929688 2.96484375 14.15234375 C2.98224609 13.08693359 2.98224609 13.08693359 3 12 C2.34 12 1.68 12 1 12 C0.01751476 7.9472484 -0.08159574 4.16138263 0 0 Z " fill="#C1633D" transform="translate(124,41)"/>
<path d="M0 0 C0.33 0 0.66 0 1 0 C0.23880907 11.22756629 -2.990971 21.46928597 -9 31 C-9.33 29.68 -9.66 28.36 -10 27 C-9.34 27 -8.68 27 -8 27 C-8.061875 25.700625 -8.061875 25.700625 -8.125 24.375 C-7.99446505 20.85055631 -7.10819364 18.32458092 -6 15 C-5.83201531 11.74955291 -5.83201531 11.74955291 -6 9 C-5.34 8.67 -4.68 8.34 -4 8 C-2.94978897 6.15028304 -2.94978897 6.15028304 -2 4 C-1.33333333 2.66666667 -0.66666667 1.33333333 0 0 Z " fill="#D16535" transform="translate(127,136)"/>
<path d="M0 0 C0.33 0 0.66 0 1 0 C1.02696365 1.79158489 1.04637917 3.58328473 1.0625 5.375 C1.07410156 6.37273438 1.08570313 7.37046875 1.09765625 8.3984375 C1 11 1 11 0 13 C-0.15644172 15.55106029 -0.25821389 18.07918663 -0.31640625 20.6328125 C-0.33718735 21.38464813 -0.35796844 22.13648376 -0.37937927 22.91110229 C-0.44482705 25.31564085 -0.50373738 27.72028967 -0.5625 30.125 C-0.60568977 31.75391771 -0.64930421 33.38282422 -0.69335938 35.01171875 C-0.80050351 39.00769915 -0.90178433 43.00379059 -1 47 C-1.66 47 -2.32 47 -3 47 C-3.91786948 38.83159588 -3.96640823 31.11338703 -3.1875 22.9375 C-3.10435547 21.93912109 -3.02121094 20.94074219 -2.93554688 19.91210938 C-2.3379376 13.19009553 -1.31823887 6.61721757 0 0 Z " fill="#C36B41" transform="translate(10,40)"/>
<path d="M0 0 C-0.33 1.32 -0.66 2.64 -1 4 C-1.99 4 -2.98 4 -4 4 C-4 4.66 -4 5.32 -4 6 C-6.21275099 7.91692867 -8.43149096 9.71971628 -10.75 11.5 C-11.70132813 12.24830078 -11.70132813 12.24830078 -12.671875 13.01171875 C-18.583215 17.60532254 -18.583215 17.60532254 -22 19 C-22.66 18.67 -23.32 18.34 -24 18 C-19.16985347 12.80556867 -14.19135547 8.49452333 -8.296875 4.54296875 C-5.98170448 3.02788315 -5.98170448 3.02788315 -3.828125 1.30078125 C-2 0 -2 0 0 0 Z " fill="#C16538" transform="translate(85,103)"/>
<path d="M0 0 C0 0.99 0 1.98 0 3 C0.103125 3.78375 0.20625 4.5675 0.3125 5.375 C-0.13737155 9.153921 -2.29959214 10.42818299 -5 13 C-6.319018 15.66533035 -6.319018 15.66533035 -7 18 C-7.66 18 -8.32 18 -9 18 C-9 18.66 -9 19.32 -9 20 C-9.99 20 -10.98 20 -12 20 C-12.309375 20.78375 -12.61875 21.5675 -12.9375 22.375 C-14 25 -14 25 -15 27 C-15.66 26.67 -16.32 26.34 -17 26 C-15.29870368 23.1623867 -13.58765871 20.33076751 -11.875 17.5 C-11.400625 16.70851563 -10.92625 15.91703125 -10.4375 15.1015625 C-7.23942817 9.8290657 -3.79572889 4.85987364 0 0 Z " fill="#DC6425" transform="translate(70,32)"/>
<path d="M0 0 C0.99 0 1.98 0 3 0 C1.21635681 4.96013135 -1.32932237 9.46469448 -3.875 14.0625 C-4.30941406 14.86494141 -4.74382812 15.66738281 -5.19140625 16.49414062 C-7.41769097 20.5221783 -9.4579653 23.96043999 -13 27 C-13.6875 25.1875 -13.6875 25.1875 -14 23 C-12.6875 21.25 -12.6875 21.25 -11 20 C-10.34 20 -9.68 20 -9 20 C-9 19.01 -9 18.02 -9 17 C-8.34 17 -7.68 17 -7 17 C-6.95875 16.05125 -6.9175 15.1025 -6.875 14.125 C-6.13915957 8.85508395 -3.31287817 4.09577226 0 0 Z " fill="#C66434" transform="translate(82,60)"/>
<path d="M0 0 C0.33 0.66 0.66 1.32 1 2 C1.99 2 2.98 2 4 2 C4.0515625 2.68964844 4.103125 3.37929687 4.15625 4.08984375 C5.11947126 12.06925627 7.81677617 16.83806269 14 22 C16.35820804 23.38483887 18.37142569 24.17857053 21 25 C19.375 25.75 19.375 25.75 17 26 C13.14809405 23.8333029 9.89788879 21.34371784 7 18 C7 17.34 7 16.68 7 16 C6.01 16 5.02 16 4 16 C-0.59225513 5.62642369 -0.59225513 5.62642369 0 0 Z " fill="#D76531" transform="translate(8,88)"/>
<path d="M0 0 C0.33 0 0.66 0 1 0 C1.66 5.28 2.32 10.56 3 16 C3.66 16 4.32 16 5 16 C6.32093236 14.43862664 6.32093236 14.43862664 7.5625 12.5 C8.35274707 11.31814682 9.160139 10.14712722 10 9 C10.33 9 10.66 9 11 9 C11.3125 11.6875 11.3125 11.6875 11 15 C8.75407292 17.80740885 7.10532787 19.61164156 3.6875 20.8125 C3.130625 20.874375 2.57375 20.93625 2 21 C-0.06723714 17.89914429 -0.24497423 17.27068319 -0.1953125 13.76953125 C-0.18886719 12.96708984 -0.18242187 12.16464844 -0.17578125 11.33789062 C-0.15902344 10.50451172 -0.14226563 9.67113281 -0.125 8.8125 C-0.11597656 7.96751953 -0.10695313 7.12253906 -0.09765625 6.25195312 C-0.07410703 4.16784757 -0.03823647 2.08388783 0 0 Z " fill="#D0602F" transform="translate(32,68)"/>
<path d="M0 0 C0.33 0 0.66 0 1 0 C0.34 12.54 -0.32 25.08 -1 38 C-1.33 38 -1.66 38 -2 38 C-3.86107346 26.60092507 -5.31058681 10.62117362 0 0 Z " fill="#C65F28" transform="translate(36,46)"/>
<path d="M0 0 C-0.85722656 0.65226563 -1.71445313 1.30453125 -2.59765625 1.9765625 C-8.53322277 6.50823096 -14.40109921 11.05213418 -20 16 C-20.66 15.34 -21.32 14.68 -22 14 C-21.34 13.34 -20.68 12.68 -20 12 C-19.01 12 -18.02 12 -17 12 C-17 10.68 -17 9.36 -17 8 C-15.68 8 -14.36 8 -13 8 C-12.938125 7.38125 -12.87625 6.7625 -12.8125 6.125 C-12 4 -12 4 -9.5 2.875 C-8.675 2.58625 -7.85 2.2975 -7 2 C-6.67 1.34 -6.34 0.68 -6 0 C-2.49056604 -1.24528302 -2.49056604 -1.24528302 0 0 Z " fill="#CD6536" transform="translate(98,129)"/>
<path d="M0 0 C2.62475613 1.93629551 3.01163584 3.05556439 3.6953125 6.3203125 C3.83710937 7.57585937 3.97890625 8.83140625 4.125 10.125 C4.25786271 14.38819477 4.25786271 14.38819477 6 18 C5.90903444 20.86688248 5.76232012 23.70300515 5.5625 26.5625 C5.51029297 27.36880859 5.45808594 28.17511719 5.40429688 29.00585938 C5.27422624 31.00421738 5.13770944 33.00215386 5 35 C4.67 35 4.34 35 4 35 C3.93941406 33.865625 3.87882812 32.73125 3.81640625 31.5625 C3.73191506 30.04165865 3.64727149 28.52082575 3.5625 27 C3.52318359 26.25621094 3.48386719 25.51242188 3.44335938 24.74609375 C3.16343981 19.7936706 2.82485813 14.8945224 2 10 C1.34 9.67 0.68 9.34 0 9 C-0.85056945 5.44307323 -1.16909807 3.50729422 0 0 Z " fill="#E0662C" transform="translate(102,57)"/>
<path d="M0 0 C0.66 0.33 1.32 0.66 2 1 C-0.37806081 6.68231373 -5.61972 10.59105667 -11.23046875 12.9296875 C-16.24901562 14.30437388 -19.23647 13.58784333 -24 12 C-24 11.34 -24 10.68 -24 10 C-20.7 10 -17.4 10 -14 10 C-14 9.67 -14 9.34 -14 9 C-12.80375 8.814375 -11.6075 8.62875 -10.375 8.4375 C-5.28123878 7.21390967 -2.93058385 4.15166045 0 0 Z " fill="#E66629" transform="translate(94,154)"/>
<path d="M0 0 C1.65 0.33 3.3 0.66 5 1 C3.56951306 4.18283344 1.80982757 6.57915658 -0.5 9.1875 C-1.1084375 9.88230469 -1.716875 10.57710937 -2.34375 11.29296875 C-4 13 -4 13 -6 14 C-5.57202798 8.29370646 -3.15654048 4.58921384 0 0 Z " fill="#DB6931" transform="translate(112,166)"/>
<path d="M0 0 C0.66 0.33 1.32 0.66 2 1 C1.42655063 3.86724686 1.1385485 4.8614515 -1 7 C-1.20572271 9.17022005 -1.20572271 9.17022005 -1.0625 11.625 C-0.96261529 16.20637862 -1.32897967 20.47061279 -2 25 C-4.68744973 22.31255027 -4.69164519 20.34814514 -5.0390625 16.65234375 C-4.95169722 10.72024151 -3.28067636 4.92101454 0 0 Z " fill="#E6672B" transform="translate(45,145)"/>
<path d="M0 0 C0.66 0.66 1.32 1.32 2 2 C1.34 2 0.68 2 0 2 C-0.12375 2.515625 -0.2475 3.03125 -0.375 3.5625 C-1.18641628 6.72702351 -2.0945913 9.86124985 -3 13 C-3.66 13 -4.32 13 -5 13 C-5 13.99 -5 14.98 -5 16 C-7 18 -7 18 -10 19 C-10.66 18.01 -11.32 17.02 -12 16 C-11.01 15.34 -10.02 14.68 -9 14 C-7.80767387 11.94996045 -7.80767387 11.94996045 -7 10 C-6.01 10 -5.02 10 -4 10 C-3.896875 8.906875 -3.79375 7.81375 -3.6875 6.6875 C-3.02692273 3.14440371 -2.7972908 2.06756277 0 0 Z " fill="#E3662C" transform="translate(78,64)"/>
<path d="M0 0 C0.66 0 1.32 0 2 0 C1.21953935 3.90230326 -0.40716896 7.36834522 -2 11 C-2.433125 12.423125 -2.433125 12.423125 -2.875 13.875 C-4 16 -4 16 -6.625 16.8125 C-7.800625 16.9053125 -7.800625 16.9053125 -9 17 C-7.5143761 12.99624358 -5.63136615 9.38578153 -3.5 5.6875 C-2.58734375 4.08455078 -2.58734375 4.08455078 -1.65625 2.44921875 C-1.1096875 1.64097656 -0.563125 0.83273438 0 0 Z " fill="#CD6833" transform="translate(52,60)"/>
<path d="M0 0 C0.66 0.33 1.32 0.66 2 1 C1.34 2.32 0.68 3.64 0 5 C0.99 5.33 1.98 5.66 3 6 C0.36 9.63 -2.28 13.26 -5 17 C-5.66 16.01 -6.32 15.02 -7 14 C-6.34 14 -5.68 14 -5 14 C-4.89042969 13.32453125 -4.78085937 12.6490625 -4.66796875 11.953125 C-4.50941406 11.06109375 -4.35085937 10.1690625 -4.1875 9.25 C-3.96126953 7.92742187 -3.96126953 7.92742187 -3.73046875 6.578125 C-2.94585752 3.8089089 -1.85404641 2.1740599 0 0 Z " fill="#D86834" transform="translate(65,85)"/>
<path d="M0 0 C-7.64475945 6.19845361 -7.64475945 6.19845361 -13.6875 6.625 C-15.17830078 6.73714844 -15.17830078 6.73714844 -16.69921875 6.8515625 C-17.45847656 6.90054688 -18.21773438 6.94953125 -19 7 C-16.32114278 4.12807199 -13.56170128 2.66212727 -10 1 C-10 1.66 -10 2.32 -10 3 C-9.34 3 -8.68 3 -8 3 C-8 2.34 -8 1.68 -8 1 C-3.375 -1.125 -3.375 -1.125 0 0 Z " fill="#CD6134" transform="translate(105,96)"/>
<path d="M0 0 C0.6496875 0.30164063 1.299375 0.60328125 1.96875 0.9140625 C2.29875 1.9040625 2.62875 2.8940625 2.96875 3.9140625 C-1.31226246 3.00155644 -5.52899175 2.06729383 -9.71875 0.7890625 C-12.98203665 -0.07293775 -15.6750008 -0.24965697 -19.03125 -0.0859375 C-19.03125 -0.7459375 -19.03125 -1.4059375 -19.03125 -2.0859375 C-13.59762242 -4.80275129 -5.50232021 -1.54540475 0 0 Z " fill="#AB512A" transform="translate(35.03125,17.0859375)"/>
<path d="M0 0 C-3.91534547 3.91534547 -8.98269434 4.12168393 -14.27734375 4.1953125 C-16.16416226 4.18216394 -18.05093358 4.1585275 -19.9375 4.125 C-20.90751953 4.11597656 -21.87753906 4.10695312 -22.87695312 4.09765625 C-25.25156407 4.07426107 -27.62564776 4.04148176 -30 4 C-30 3.67 -30 3.34 -30 3 C-28.77023438 2.96261719 -27.54046875 2.92523438 -26.2734375 2.88671875 C-24.64059599 2.82102972 -23.00778482 2.75458341 -21.375 2.6875 C-20.56675781 2.66494141 -19.75851563 2.64238281 -18.92578125 2.61914062 C-11.94194831 2.30685541 -6.81212784 -1.78412872 0 0 Z " fill="#CA6A3D" transform="translate(95,186)"/>
<path d="M0 0 C0.85464844 -0.01417969 1.70929688 -0.02835938 2.58984375 -0.04296875 C5.20159303 0.20046444 6.81750652 0.8696732 9.0625 2.1875 C9.3925 1.5275 9.7225 0.8675 10.0625 0.1875 C10.3925 2.1675 10.7225 4.1475 11.0625 6.1875 C10.4025 5.8575 9.7425 5.5275 9.0625 5.1875 C9.0625 4.5275 9.0625 3.8675 9.0625 3.1875 C7.845625 3.208125 6.62875 3.22875 5.375 3.25 C2.84477715 3.26336385 0.85738791 3.13979951 -1.625 2.5625 C-4.59178267 2.08140011 -6.27599008 2.89476661 -8.9375 4.1875 C-8.6075 3.1975 -8.2775 2.2075 -7.9375 1.1875 C-5.02663331 0.2172111 -3.03526315 0.02282153 0 0 Z " fill="#E2642A" transform="translate(98.9375,14.8125)"/>
<path d="M0 0 C0.99 0.495 0.99 0.495 2 1 C3.00546691 7.36795708 3.12739428 13.62798275 3.0625 20.0625 C3.05798828 20.92810547 3.05347656 21.79371094 3.04882812 22.68554688 C3.03719913 24.79039539 3.01927073 26.89520758 3 29 C2.67 29 2.34 29 2 29 C1.93941406 27.78441406 1.87882813 26.56882812 1.81640625 25.31640625 C1.73201668 23.73175772 1.6473679 22.14712298 1.5625 20.5625 C1.52318359 19.76005859 1.48386719 18.95761719 1.44335938 18.13085938 C1.5945704 14.24760439 1.5945704 14.24760439 0 11 C-0.07226502 9.14712498 -0.0838122 7.29166122 -0.0625 5.4375 C-0.05347656 4.42558594 -0.04445312 3.41367188 -0.03515625 2.37109375 C-0.02355469 1.58863281 -0.01195312 0.80617188 0 0 Z " fill="#CE7343" transform="translate(129,76)"/>
<path d="M0 0 C0.66 0.33 1.32 0.66 2 1 C1.67 1.66 1.34 2.32 1 3 C0.34 2.67 -0.32 2.34 -1 2 C-0.67 1.34 -0.34 0.68 0 0 Z M-2 3 C-1.34 3.99 -0.68 4.98 0 6 C-0.928125 6.7425 -1.85625 7.485 -2.8125 8.25 C-5.27126958 10.29025561 -7.21647549 12.32471323 -9 15 C-9.8125 13.375 -9.8125 13.375 -10 11 C-7.57858445 7.63692285 -5.4528574 5.30190493 -2 3 Z " fill="#E3652A" transform="translate(79,24)"/>
<path d="M0 0 C5.1985352 3.95508154 9.10826 8.0832601 12 14 C12 14.66 12 15.32 12 16 C11.34 16 10.68 16 10 16 C9.4225 14.88625 8.845 13.7725 8.25 12.625 C6.50769304 9.54198166 5.27294236 8.41827502 2 7 C0.30933342 4.3794668 0 3.17370278 0 0 Z " fill="#BB663B" transform="translate(109,16)"/>
<path d="M0 0 C1.43088528 2.86177057 0.59991697 4.93375773 0 8 C-0.66 8 -1.32 8 -2 8 C-2 8.66 -2 9.32 -2 10 C-2.99 10 -3.98 10 -5 10 C-5.309375 10.78375 -5.61875 11.5675 -5.9375 12.375 C-7 15 -7 15 -8 17 C-8.66 16.67 -9.32 16.34 -10 16 C-6.7 10.72 -3.4 5.44 0 0 Z " fill="#C56A3E" transform="translate(63,42)"/>
<path d="M0 0 C7.11484687 0.3856646 13.35441866 1.39099399 20 4 C20 4.33 20 4.66 20 5 C13.42929266 5.31289083 8.0296248 4.77898141 2 2 C1.34 1.34 0.68 0.68 0 0 Z " fill="#DF5E28" transform="translate(54,184)"/>
<path d="M0 0 C0.433125 0.639375 0.86625 1.27875 1.3125 1.9375 C4.9860706 4.75675186 8.10288015 4.57043031 12.63671875 4.7265625 C13.41660156 4.81679687 14.19648437 4.90703125 15 5 C15.33 5.66 15.66 6.32 16 7 C14.10489301 7.08160748 12.20875496 7.13946459 10.3125 7.1875 C8.72888672 7.23970703 8.72888672 7.23970703 7.11328125 7.29296875 C3.64577232 6.96666615 1.81567552 5.99030125 -1 4 C-0.67 2.68 -0.34 1.36 0 0 Z " fill="#D65822" transform="translate(65,158)"/>
<path d="M0 0 C0.66 0.33 1.32 0.66 2 1 C-2.455 7.93 -2.455 7.93 -7 15 C-7.33 13.68 -7.66 12.36 -8 11 C-7.34 11 -6.68 11 -6 11 C-6.33 10.01 -6.66 9.02 -7 8 C-6.01 7.67 -5.02 7.34 -4 7 C-3.67 5.02 -3.34 3.04 -3 1 C-2.01 0.67 -1.02 0.34 0 0 Z " fill="#C16737" transform="translate(93,45)"/>
<path d="M0 0 C0.66 0.66 1.32 1.32 2 2 C1.625 5.625 1.625 5.625 1 9 C0.34 9 -0.32 9 -1 9 C-1.268125 9.928125 -1.53625 10.85625 -1.8125 11.8125 C-2.91148371 14.76240366 -3.62418561 16.05615186 -6 18 C-5.02042807 14.30776736 -3.9813825 10.80893978 -2.4375 7.3125 C-1.35474988 4.8174671 -0.52898755 2.64493773 0 0 Z " fill="#E16729" transform="translate(103,134)"/>
<path d="M0 0 C1.17246771 4.09902098 1.07076062 7.75436258 1 12 C0.01 12.495 0.01 12.495 -1 13 C-1.165 14.155 -1.33 15.31 -1.5 16.5 C-1.665 17.655 -1.83 18.81 -2 20 C-2.66 20.33 -3.32 20.66 -4 21 C-3.54034292 13.69303751 -2.11670277 7.00242552 0 0 Z " fill="#C66C40" transform="translate(15,19)"/>
<path d="M0 0 C0.33 0 0.66 0 1 0 C1 1.65 1 3.3 1 5 C0.01 5.33 -0.98 5.66 -2 6 C-2.33 6.66 -2.66 7.32 -3 8 C-3.33 8.66 -3.66 9.32 -4 10 C-4.99 10.33 -5.98 10.66 -7 11 C-7.66 10.34 -8.32 9.68 -9 9 C-8.01 9 -7.02 9 -6 9 C-5.690625 8.21625 -5.38125 7.4325 -5.0625 6.625 C-4 4 -4 4 -3 2 C-2.01 2 -1.02 2 0 2 C0 1.34 0 0.68 0 0 Z " fill="#DC622B" transform="translate(61,50)"/>
<path d="M0 0 C0.33 0 0.66 0 1 0 C0.67 6.93 0.34 13.86 0 21 C-0.33 21 -0.66 21 -1 21 C-1.89604368 14.95170514 -2.11269443 9.1105424 -2 3 C-1.34 3 -0.68 3 0 3 C0 2.01 0 1.02 0 0 Z " fill="#B96744" transform="translate(35,63)"/>
<path d="M0 0 C2.97 0.495 2.97 0.495 6 1 C6 1.66 6 2.32 6 3 C7.06541016 3.18175781 7.06541016 3.18175781 8.15234375 3.3671875 C9.07144531 3.53476563 9.99054687 3.70234375 10.9375 3.875 C11.85402344 4.03742188 12.77054688 4.19984375 13.71484375 4.3671875 C14.84599609 4.68042969 14.84599609 4.68042969 16 5 C16.33 5.66 16.66 6.32 17 7 C10.19775182 6.82679461 5.34589067 5.31167204 0 1 C0 0.67 0 0.34 0 0 Z " fill="#BD6541" transform="translate(48,182)"/>
<path d="M0 0 C0.33 2.64 0.66 5.28 1 8 C0.01 8.33 -0.98 8.66 -2 9 C-1.67 6.36 -1.34 3.72 -1 1 C-4.77545388 2.09068668 -7.47043472 2.9083091 -10 6 C-10.33 5.34 -10.66 4.68 -11 4 C-10.34 4 -9.68 4 -9 4 C-8.71125 3.360625 -8.4225 2.72125 -8.125 2.0625 C-6.00428289 -1.82548136 -3.86823244 -0.91616031 0 0 Z " fill="#E16426" transform="translate(106,123)"/>
<path d="M0 0 C0.66 0 1.32 0 2 0 C0.91239459 5.70992843 -1.77513112 7.74430808 -6.3203125 10.8984375 C-7.15175781 11.44371094 -7.15175781 11.44371094 -8 12 C-6.59808647 9.00745382 -4.96632511 6.4045389 -3 3.75 C-2.484375 3.04359375 -1.96875 2.3371875 -1.4375 1.609375 C-0.963125 1.07828125 -0.48875 0.5471875 0 0 Z " fill="#BB6134" transform="translate(79,20)"/>
<path d="M0 0 C0.99 0.33 1.98 0.66 3 1 C2.38125 1.2475 1.7625 1.495 1.125 1.75 C-1.35068687 3.20628639 -1.95125002 4.37812506 -3 7 C-3.66 7 -4.32 7 -5 7 C-5 7.66 -5 8.32 -5 9 C-6.32 9.33 -7.64 9.66 -9 10 C-6.94418499 4.97467443 -4.8413965 2.52156068 0 0 Z " fill="#C76937" transform="translate(88,14)"/>
<path d="M0 0 C1.32 0 2.64 0 4 0 C4 0.99 4 1.98 4 3 C3.34 3 2.68 3 2 3 C2 3.66 2 4.32 2 5 C0.46875 6.2890625 0.46875 6.2890625 -1.5 7.625 C-2.1496875 8.07101563 -2.799375 8.51703125 -3.46875 8.9765625 C-3.9740625 9.31429687 -4.479375 9.65203125 -5 10 C-4.71125 9.443125 -4.4225 8.88625 -4.125 8.3125 C-2.94687457 5.9654682 -2.94687457 5.9654682 -1.9375 3.3125 C-1 1 -1 1 0 0 Z " fill="#D75928" transform="translate(60,121)"/>
<path d="M0 0 C0.33 0 0.66 0 1 0 C1 4.95 1 9.9 1 15 C0.34 15 -0.32 15 -1 15 C-1.33 11.04 -1.66 7.08 -2 3 C-1.34 3 -0.68 3 0 3 C0 2.01 0 1.02 0 0 Z " fill="#CF633C" transform="translate(8,72)"/>
<path d="M0 0 C0.99 0.33 1.98 0.66 3 1 C1.77472971 5.05281712 0.30119506 8.44360764 -2 12 C-2.33 10.68 -2.66 9.36 -3 8 C-2.34 8 -1.68 8 -1 8 C-1.020625 7.05125 -1.04125 6.1025 -1.0625 5.125 C-1 2 -1 2 0 0 Z " fill="#C66B38" transform="translate(120,155)"/>
<path d="M0 0 C0.33 0.66 0.66 1.32 1 2 C-0.43359375 4.6015625 -0.43359375 4.6015625 -2.4375 7.625 C-3.09621094 8.62789062 -3.75492187 9.63078125 -4.43359375 10.6640625 C-4.95050781 11.43492188 -5.46742187 12.20578125 -6 13 C-6.66 11.68 -7.32 10.36 -8 9 C-6.625 7.5 -6.625 7.5 -5 6 C-4.34 6 -3.68 6 -3 6 C-3 5.01 -3 4.02 -3 3 C-2.34 3 -1.68 3 -1 3 C-0.67 2.01 -0.34 1.02 0 0 Z " fill="#BE673A" transform="translate(76,74)"/>
<path d="M0 0 C0.66 0 1.32 0 2 0 C1.38479725 3.99881788 -0.60268669 6.80358226 -3 10 C-3.66 10 -4.32 10 -5 10 C-3.66749209 6.4124787 -2.169283 3.1635377 0 0 Z " fill="#C4683C" transform="translate(52,60)"/>
<path d="M0 0 C3.625 0.375 3.625 0.375 7 1 C7 1.33 7 1.66 7 2 C6.236875 2.020625 5.47375 2.04125 4.6875 2.0625 C1.58610882 2.79660949 1.58610882 2.79660949 0.1875 6.5625 C-0.204375 7.696875 -0.59625 8.83125 -1 10 C-1.98965019 7.03104944 -2.23779528 5.0913386 -2 2 C-1.34 1.34 -0.68 0.68 0 0 Z " fill="#CF5725" transform="translate(17,16)"/>
<path d="M0 0 C2.52259061 1.97420135 2.9929808 2.96745642 3.6875 6.1875 C3.790625 7.115625 3.89375 8.04375 4 9 C4.99 9.33 5.98 9.66 7 10 C6.67 10.66 6.34 11.32 6 12 C2.35996939 9.57331293 2.28839527 8.03697185 1 4 C0.34 3.67 -0.32 3.34 -1 3 C-0.67 2.01 -0.34 1.02 0 0 Z " fill="#E8682A" transform="translate(113,25)"/>
<path d="M0 0 C2.375 -0.1875 2.375 -0.1875 5 0 C5.66 0.99 6.32 1.98 7 3 C4.625 4.0625 4.625 4.0625 2 5 C1.34 4.67 0.68 4.34 0 4 C0 2.68 0 1.36 0 0 Z " fill="#DA6537" transform="translate(93,182)"/>
<path d="M0 0 C0.33 0 0.66 0 1 0 C1.49230769 6.4 1.49230769 6.4 -1 9.4375 C-1.99 10.2109375 -1.99 10.2109375 -3 11 C-3.66 10.67 -4.32 10.34 -5 10 C-3.35 6.7 -1.7 3.4 0 0 Z " fill="#B86237" transform="translate(98,141)"/>
<path d="M0 0 C0.25 2.3125 0.25 2.3125 0 5 C-2 6.8125 -2 6.8125 -4 8 C-4.1875 5.125 -4.1875 5.125 -4 2 C-1 0 -1 0 0 0 Z " fill="#E06529" transform="translate(17,30)"/>
<path d="M0 0 C0.33 0.99 0.66 1.98 1 3 C0.34 3.66 -0.32 4.32 -1 5 C-1 5.66 -1 6.32 -1 7 C-1.66 7 -2.32 7 -3 7 C-3 8.32 -3 9.64 -3 11 C-3.66 11 -4.32 11 -5 11 C-4.75 7.625 -4.75 7.625 -4 4 C-1.9375 2.5625 -1.9375 2.5625 0 2 C0 1.34 0 0.68 0 0 Z " fill="#DC6226" transform="translate(88,49)"/>
<path d="M0 0 C0.66 0.66 1.32 1.32 2 2 C1.67342446 5.75561867 0.8830622 8.73602552 -1 12 C-1.66 11.34 -2.32 10.68 -3 10 C-2.34 10 -1.68 10 -1 10 C-1.01160156 9.36191406 -1.02320313 8.72382812 -1.03515625 8.06640625 C-1.04417969 7.24011719 -1.05320313 6.41382813 -1.0625 5.5625 C-1.07410156 4.73878906 -1.08570313 3.91507813 -1.09765625 3.06640625 C-1 1 -1 1 0 0 Z " fill="#E3692A" transform="translate(35,40)"/>
<path d="M0 0 C0.99 0 1.98 0 3 0 C3.625 1.875 3.625 1.875 4 4 C3.34 4.66 2.68 5.32 2 6 C1.01 6 0.02 6 -1 6 C-0.67 4.02 -0.34 2.04 0 0 Z " fill="#D96024" transform="translate(66,84)"/>
<path d="M0 0 C4.92307692 4.30769231 4.92307692 4.30769231 5.3125 7.8125 C5.209375 8.534375 5.10625 9.25625 5 10 C4.34 10 3.68 10 3 10 C2.01 6.7 1.02 3.4 0 0 Z " fill="#D6612E" transform="translate(114,24)"/>
<path d="M0 0 C0.33 0.66 0.66 1.32 1 2 C1.99 2 2.98 2 4 2 C4.625 3.8125 4.625 3.8125 5 6 C4.01 7.485 4.01 7.485 3 9 C0 3.375 0 3.375 0 0 Z " fill="#CB6B3F" transform="translate(9,95)"/>
<path d="M0 0 C-2.3125 2.0625 -2.3125 2.0625 -5 4 C-5.99 3.67 -6.98 3.34 -8 3 C-8 2.34 -8 1.68 -8 1 C-3.375 -1.125 -3.375 -1.125 0 0 Z " fill="#D75F27" transform="translate(105,96)"/>
<path d="M0 0 C0.66 0.33 1.32 0.66 2 1 C1.50168276 4.68754757 0.89932357 6.60490662 -2 9 C-2.33 8.34 -2.66 7.68 -3 7 C-2.06421005 4.64018187 -1.06652192 2.30368736 0 0 Z " fill="#CE5C2B" transform="translate(78,66)"/>
<path d="M0 0 C1.32 0.33 2.64 0.66 4 1 C2.6875 3.5 2.6875 3.5 1 6 C0.01 6 -0.98 6 -2 6 C-1.34 4.02 -0.68 2.04 0 0 Z " fill="#F7621A" transform="translate(72,40)"/>
<path d="M0 0 C0 3.86695678 -1.41909971 6.5088452 -3 10 C-3.99 10 -4.98 10 -6 10 C-4.6302836 6.00499382 -2.74277578 3.19990508 0 0 Z " fill="#C46B40" transform="translate(70,32)"/>
<path d="M0 0 C1.32 0 2.64 0 4 0 C4 1.98 4 3.96 4 6 C3.67 5.01 3.34 4.02 3 3 C1.68 3.33 0.36 3.66 -1 4 C-0.67 2.68 -0.34 1.36 0 0 Z " fill="#CF5523" transform="translate(93,42)"/>
<path d="M0 0 C2 2 2 2 2.125 4.625 C2.08375 5.40875 2.0425 6.1925 2 7 C1.01 7.33 0.02 7.66 -1 8 C-0.67 5.36 -0.34 2.72 0 0 Z " fill="#E76633" transform="translate(103,134)"/>
<path d="M0 0 C0.66 0 1.32 0 2 0 C1.67 1.32 1.34 2.64 1 4 C-1.31 4.33 -3.62 4.66 -6 5 C-5.195625 4.360625 -4.39125 3.72125 -3.5625 3.0625 C-1.7249496 1.59396498 -1.7249496 1.59396498 0 0 Z " fill="#BD6542" transform="translate(83,103)"/>
<path d="M0 0 C0 3 0 3 -2 5.1875 C-2.66 5.785625 -3.32 6.38375 -4 7 C-4.33 6.01 -4.66 5.02 -5 4 C-4.34 4 -3.68 4 -3 4 C-3 3.01 -3 2.02 -3 1 C-2.01 0.67 -1.02 0.34 0 0 Z " fill="#CB6A3E" transform="translate(63,95)"/>
<path d="M0 0 C0.33 0.66 0.66 1.32 1 2 C1.66 2 2.32 2 3 2 C3 3.98 3 5.96 3 8 C2.01 8.495 2.01 8.495 1 9 C0.67 6.03 0.34 3.06 0 0 Z " fill="#B86036" transform="translate(98,51)"/>
</svg>
